<svg xmlns="http://www.w3.org/2000/svg" width="140" height="132" viewBox="0 0 140 132">
    <g fill="none" fill-rule="evenodd">
        <path fill="#333" d="M33.35 48.798c-.029-.368-.043-.74-.043-1.114 0-9.282 8.92-16.807 19.923-16.807 6.93 0 13.033 2.985 16.603 7.513 3.569-4.528 9.672-7.513 16.602-7.513 11.004 0 19.924 7.525 19.924 16.807 0 .48-.024.954-.07 1.422l.533.003-9.874 38.5c25.083 5.032 39.355 19.829 42.816 44.39L0 130.469c3.446-24.107 17.687-38.394 42.723-42.86L33.957 51.96a14.46 14.46 0 0 1-.418-1.7l-.36-1.463h.17z"/>
        <path fill="#171717" d="M32.984 48.849h-.17l.36 1.462c.105.577.245 1.145.418 1.7l7.724 31.357H17.32a5 5 0 0 1-4.748-6.566l14.59-44.235C30.985 14.007 48.24 0 68.947 0c20.6 0 37.784 13.863 41.725 32.28l15.776 44.414a5 5 0 0 1-4.712 6.674H97.793l8.787-34.208-.534-.003c.047-.469.07-.943.07-1.422 0-9.283-8.934-16.808-19.956-16.808-6.942 0-13.056 2.985-16.631 7.514-3.576-4.53-9.69-7.514-16.631-7.514-11.022 0-19.957 7.525-19.957 16.808 0 .374.014.746.043 1.114z"/>
        <ellipse cx="53.08" cy="48.631" fill="#171717" rx="13.365" ry="10.035"/>
        <ellipse cx="49.261" cy="46.701" fill="#4D4D4D" rx="2.673" ry="2.702"/>
        <ellipse cx="85.92" cy="48.631" fill="#171717" rx="13.365" ry="10.035"/>
        <path fill="#171717" d="M51.01 90.41L67.3 62.317a3 3 0 0 1 5.194.008l15.941 27.678c.116-.006.232-.01.35-.01 3.69 0 6.682 3.01 6.682 6.723 0 3.712-2.992 6.722-6.683 6.722-2.865 0-5.31-1.814-6.26-4.363l-27.607.08c-.971 2.507-3.394 4.283-6.229 4.283-3.69 0-6.683-3.01-6.683-6.722 0-3.713 2.992-6.722 6.683-6.722.816 0 1.598.147 2.321.416z"/>
        <path fill="#333" d="M61.28 78.585l3.345-4.79a1 1 0 0 1 1.82.573v15.72a1 1 0 0 1-1 1h-3.346a1 1 0 0 1-1-1v-10.93a1 1 0 0 1 .18-.573zM77.72 78.585l-3.345-4.79a1 1 0 0 0-1.82.573v15.72a1 1 0 0 0 1 1H76.9a1 1 0 0 0 1-1v-10.93a1 1 0 0 0-.18-.573z"/>
        <ellipse cx="82.102" cy="46.701" fill="#4D4D4D" rx="2.673" ry="2.702"/>
        <path fill="#171717" d="M136.768 119.49c1.362 3.842 2.36 8.012 2.996 12.509L0 130.472c.463-3.236 1.122-6.296 1.976-9.178 7.688-3.211 20.627-7.908 30.089-7.68 14.317.343 30.29 10.585 39.844 10.585 9.554 0 16.16-12.158 39.771-10.586 11.055.736 19.417 2.695 25.088 5.878z"/>
        <path fill="#333" d="M47.06 123.508h44.116a2 2 0 0 1 2 2v4.947H45.06v-4.947a2 2 0 0 1 2-2z"/>
        <path fill="#FFF" d="M71.671.081v131.173L0 130.469c3.446-24.107 17.687-38.394 42.723-42.86l-1.529-6.219.122 1.978H12.974a1.857 1.857 0 0 1-1.764-2.439l15.952-48.362C30.985 14.007 48.24 0 68.947 0c.915 0 1.823.027 2.724.081z" opacity=".037"/>
    </g>
</svg>
