<svg xmlns="http://www.w3.org/2000/svg" width="300" height="283" viewBox="0 0 300 283">
    <g fill="none" fill-rule="evenodd">
        <path fill="#333" d="M71.464 104.46a30.798 30.798 0 0 1-.093-2.384c0-19.87 19.114-35.979 42.693-35.979 14.85 0 27.929 6.39 35.577 16.084 7.649-9.694 20.728-16.084 35.577-16.084 23.579 0 42.693 16.108 42.693 35.979 0 1.025-.05 2.04-.15 3.045l1.142.005-21.157 82.415c53.75 10.773 84.332 42.448 91.748 95.025L0 279.292c7.384-51.607 37.9-82.19 91.55-91.75L72.766 111.23c-.37-1.19-.67-2.405-.896-3.64l-.771-3.132.365.002z"/>
        <path fill="#171717" d="M70.68 104.57l-.366-.002.772 3.132c.226 1.235.527 2.45.898 3.64l16.55 67.123H29.215a5 5 0 0 1-4.748-6.568l33.736-102.18C66.397 29.984 103.371 0 147.743 0c44.145 0 80.966 29.676 89.412 69.1l36.51 102.688a5 5 0 0 1-4.71 6.675h-59.398l18.83-73.229-1.145-.004c.1-1.004.15-2.02.15-3.046 0-19.871-19.146-35.98-42.764-35.98-14.875 0-27.977 6.39-35.638 16.085-7.662-9.695-20.763-16.085-35.638-16.085-23.618 0-42.765 16.109-42.765 35.98 0 .802.031 1.597.092 2.386z"/>
        <ellipse cx="113.742" cy="104.103" fill="#171717" rx="28.64" ry="21.482"/>
        <ellipse cx="105.559" cy="99.972" fill="#4D4D4D" rx="5.728" ry="5.784"/>
        <ellipse cx="184.115" cy="104.103" fill="#171717" rx="28.64" ry="21.482"/>
        <path fill="#171717" d="M109.311 193.54l37.842-65.298a3 3 0 0 1 5.195.006l37.124 64.42c.258-.014.518-.022.78-.022 7.909 0 14.32 6.443 14.32 14.39 0 7.948-6.411 14.39-14.32 14.39-6.132 0-11.364-3.873-13.405-9.318l-59.165.144c-2.079 5.37-7.272 9.174-13.35 9.174-7.909 0-14.32-6.442-14.32-14.39 0-7.947 6.411-14.39 14.32-14.39 1.75 0 3.428.316 4.98.894z"/>
        <path fill="#333" d="M131.107 168.518l9.456-13.522a1 1 0 0 1 1.82.573v38.418a1 1 0 0 1-1 1h-9.457a1 1 0 0 1-1-1v-24.896a1 1 0 0 1 .18-.573zM166.75 168.518l-9.456-13.522a1 1 0 0 0-1.82.573v38.418a1 1 0 0 0 1 1h9.457a1 1 0 0 0 1-1v-24.896a1 1 0 0 0-.18-.573z"/>
        <ellipse cx="175.932" cy="99.972" fill="#4D4D4D" rx="5.728" ry="5.784"/>
        <path fill="#171717" d="M293.074 255.79c2.92 8.224 5.06 17.149 6.42 26.776L0 279.298c.993-6.929 2.405-13.478 4.235-19.647 16.473-6.875 44.2-16.93 64.475-16.443 30.679.737 64.906 22.661 85.38 22.661 20.474 0 34.627-26.026 85.225-22.66 23.688 1.575 41.608 5.769 53.759 12.582z"/>
        <path fill="#333" d="M98.558 264.39h99.104a2 2 0 0 1 2 2v12.872H96.558V266.39a2 2 0 0 1 2-2z"/>
        <path fill="#FFF" d="M153.58.174V280.97L0 279.291c7.384-51.606 37.9-82.19 91.55-91.75l-3.277-13.312.26 4.234H27.802a3.977 3.977 0 0 1-3.779-5.22L58.203 69.714C66.397 29.984 103.371 0 147.743 0c1.961 0 3.908.059 5.838.174z" opacity=".037"/>
    </g>
</svg>
