<svg xmlns="http://www.w3.org/2000/svg" width="379" height="214" viewBox="0 0 379 214">
    <g fill="#FFF" fill-rule="evenodd">
        <path d="M0 52.66V79h77.16c8.968 0 20.428-8.28 20.428-21.978 0-5.51 2.11-9.102-4.375-16.39l-9.871-11.677c-5.655-5.268.676-5.268 5.424-5.268h32.58V79h25.835V23.687H182V0H69.246c-13.717 0-20.427 13.152-20.05 20 .38 6.848 1.642 15.463 13.044 25.813 10.397 9.437-5.15 6.847-6.71 6.847H0M238.893 0H197.31L174 79h25.941l4.21-11.062h27.373L235.585 79H261L238.893 0zm-28.951 48.973L218.89 20l8.423 28.973h-17.371zM343.339 52.66c-10.012 0-10.012-3.687-10.012-3.687 8.579 0 16.187-12.494 16.187-25.286 0-12.79-12.498-23.687-22.51-23.687H271v79h28.455V52.66s12.12 14.223 18.442 20.019c6.323 5.794 6.85 6.321 15.43 6.321H378V52.66h-34.661zm-25.821-18.436h-18.063V20h18.063c8.28 0 9.711 14.224 0 14.224zM0 89h29.112l7.377 26.334L43.339 89H73.9l7.904 26.334L89.707 89H115l-23.185 79H68.63l-10.16-37.393L47.026 168h-23.71L0 89M174.892 90h-41.583L110 169h25.94l4.211-11.062h27.372L171.586 169H197l-22.108-79zm-28.951 48.975l8.95-28.973 8.421 28.973h-17.371zM344.716 112.872c-4.763 0-9.948.556-4.275 5.86l9.902 11.762c6.505 7.339 6.397 10.402 6.397 15.95 0 13.795-13.611 22.135-22.608 22.135L271.6 169c-8.616 0-9.148-.53-15.498-6.366-6.35-5.835-18.523-20.159-18.523-20.159V169H209V89.438h56.249c10.055 0 22.608 10.975 22.608 23.858 0 12.88-7.642 25.466-16.257 25.466 0 0 3.788 3.82 10.138 3.82s30.803.025 30.803.025c1.565 0 17.16 2.609 6.731-6.896-11.437-10.423-12.7-19.1-13.081-25.997C305.81 102.818 311.755 89 325.514 89H379v23.872h-34.284zm-88.995 11.034H237.58v-14.324h18.142c8.317 0 9.754 14.324 0 14.324zM80.018 194.37c4.185 0 6.696 1.836 8.397 4.725l-2.646.783c-1.647-2.268-3.537-2.916-5.75-2.916-3.727 0-6.535 2.889-6.535 6.858s2.808 6.858 6.534 6.858c2.214 0 4.104-.648 5.751-2.916l2.646.783c-1.7 2.889-4.212 4.725-8.397 4.725-5.319 0-9.288-4.023-9.288-9.45 0-5.454 3.97-9.45 9.288-9.45zM110.404 213v-7.722h-8.856V213h-2.7v-18.36h2.7v8.1h8.856v-8.1h2.7V213h-2.7zm12.592 0l6.56-18.36h3.673l6.56 18.36h-2.753l-1.566-4.293h-8.154L125.75 213h-2.754zm5.265-6.831h6.264l-3.132-8.532-3.132 8.532zM159.942 213l-3.645-6.48h-3.915V213h-2.7v-18.36h6.75c3.78 0 6.291 2.646 6.291 5.94 0 2.511-1.404 4.59-3.699 5.481l3.888 6.939h-2.97zm-3.969-15.552h-3.591v6.264h3.591c2.376 0 3.942-1.161 3.942-3.132 0-2.052-1.566-3.132-3.942-3.132zM171.724 213l6.561-18.36h3.672l6.561 18.36h-2.754l-1.566-4.293h-8.154L174.478 213h-2.754zm5.265-6.831h6.264l-3.132-8.532-3.132 8.532zm28.82-11.799c4.185 0 6.696 1.836 8.397 4.725l-2.646.783c-1.648-2.268-3.537-2.916-5.751-2.916-3.726 0-6.535 2.889-6.535 6.858s2.809 6.858 6.535 6.858c2.214 0 4.103-.648 5.75-2.916l2.647.783c-1.701 2.889-4.212 4.725-8.397 4.725-5.32 0-9.288-4.023-9.288-9.45 0-5.454 3.969-9.45 9.288-9.45zm30.736 2.808h-6.021V213h-2.7v-15.822h-5.751v-2.538h14.472v2.538zm20.8 13.257V213h-11.178v-18.387h11.178v2.538h-8.478v5.346h6.885v2.538h-6.885v5.4h8.478zM278.712 213l-3.645-6.48h-3.915V213h-2.7v-18.36h6.75c3.78 0 6.291 2.646 6.291 5.94 0 2.511-1.404 4.59-3.699 5.481l3.888 6.939h-2.97zm-3.969-15.552h-3.59v6.264h3.59c2.376 0 3.942-1.161 3.942-3.132 0-2.052-1.566-3.132-3.942-3.132zm28.414 10.395c0 3.078-2.646 5.562-6.399 5.562-2.646 0-5.13-1.134-6.534-4.536l2.241-1.269c1.296 2.349 2.511 3.213 4.563 3.213 2.08 0 3.43-1.242 3.43-2.781 0-1.296-.81-2.484-4.24-3.213-4.023-.837-5.373-2.97-5.373-5.157 0-2.997 2.214-5.292 5.778-5.292 2.646 0 4.644.999 6.021 3.078l-2.268 1.458c-1.296-1.593-2.43-1.917-3.86-1.917-1.918 0-3.025 1.134-3.025 2.484 0 1.269.783 2.187 4.023 2.997 3.78.918 5.643 2.7 5.643 5.373z"/>
    </g>
</svg>
