<svg xmlns="http://www.w3.org/2000/svg" width="271" height="156" viewBox="0 0 271 156">
    <defs>
        <filter id="a" width="107.7%" height="113.3%" x="-3.9%" y="-5.3%" filterUnits="objectBoundingBox">
            <feOffset dy="2" in="SourceAlpha" result="shadowOffsetOuter1"/>
            <feGaussianBlur in="shadowOffsetOuter1" result="shadowBlurOuter1" stdDeviation="3"/>
            <feColorMatrix in="shadowBlurOuter1" result="shadowMatrixOuter1" values="0 0 0 0 0 0 0 0 0 0 0 0 0 0 0 0 0 0 1 0"/>
            <feMerge>
                <feMergeNode in="shadowMatrixOuter1"/>
                <feMergeNode in="SourceGraphic"/>
            </feMerge>
        </filter>
    </defs>
    <g fill="#FFF" fill-rule="evenodd" filter="url(#a)" transform="translate(6 4)">
        <path d="M0 35.987v18h52.729c6.129 0 13.96-5.659 13.96-15.02 0-3.765 1.443-6.22-2.989-11.2l-6.746-7.98c-3.865-3.6.462-3.6 3.706-3.6h22.265v37.8h17.655v-37.8h23.795V0H47.32c-9.373 0-13.96 8.988-13.701 13.667.26 4.68 1.121 10.568 8.913 17.64 7.105 6.45-3.52 4.68-4.585 4.68H0M163.254 0h-28.417l-15.93 53.987h17.728l2.878-7.56h18.705l2.776 7.56h17.367L163.254 0zM143.47 33.467l6.115-19.8 5.757 19.8h-11.872zM234.63 35.987c-6.842 0-6.842-2.52-6.842-2.52 5.863 0 11.062-8.538 11.062-17.28C238.85 7.447 230.309 0 223.467 0h-38.272v53.987h19.446v-18s8.282 9.72 12.603 13.68c4.32 3.96 4.68 4.32 10.544 4.32h30.529v-18H234.63zm-17.645-12.599H204.64v-9.72h12.344c5.658 0 6.636 9.72 0 9.72zM0 60.82h19.895l5.04 17.997 4.682-17.996h20.885l5.4 17.996 5.402-17.996h17.284l-15.844 53.986H46.901l-6.944-25.553-7.82 25.553H15.934L0 60.821M119.517 61.504H91.1l-15.928 53.987h17.727l2.877-7.56h18.705l2.777 7.56h17.367l-15.108-53.987zM99.733 94.973l6.116-19.8 5.755 19.8H99.733zM235.571 77.134c-3.255 0-6.798.38-2.921 4.005l6.767 8.038c4.445 5.015 4.37 7.108 4.37 10.9 0 9.427-9.3 15.126-15.449 15.126l-42.733.288c-5.888 0-6.251-.363-10.59-4.35-4.34-3.988-12.659-13.777-12.659-13.777v18.127h-19.53V61.12h38.44c6.87 0 15.449 7.499 15.449 16.303 0 8.802-5.222 17.403-11.11 17.403 0 0 2.589 2.61 6.929 2.61s21.05.018 21.05.018c1.069 0 11.727 1.782 4.6-4.713-7.817-7.123-8.68-13.053-8.94-17.766-.26-4.712 3.802-14.155 13.205-14.155H259v16.313h-23.429zm-60.817 7.54h-12.398v-9.788h12.398c5.684 0 6.666 9.788 0 9.788zM56.52 130.912c2.79 0 4.465 1.224 5.599 3.15l-1.764.522c-1.098-1.512-2.358-1.944-3.834-1.944-2.484 0-4.356 1.926-4.356 4.572s1.872 4.572 4.356 4.572c1.476 0 2.736-.432 3.834-1.944l1.764.522c-1.134 1.926-2.808 3.15-5.598 3.15-3.546 0-6.192-2.682-6.192-6.3 0-3.636 2.646-6.3 6.192-6.3zm20.257 12.42v-5.148h-5.904v5.148h-1.8v-12.24h1.8v5.4h5.904v-5.4h1.8v12.24h-1.8zm8.395 0l4.374-12.24h2.448l4.374 12.24h-1.836l-1.044-2.862h-5.436l-1.044 2.862h-1.836zm3.51-4.554h4.176l-2.088-5.688-2.088 5.688zm21.121 4.554l-2.43-4.32h-2.61v4.32h-1.8v-12.24h4.5c2.52 0 4.194 1.764 4.194 3.96 0 1.674-.936 3.06-2.466 3.654l2.592 4.626h-1.98zm-2.646-10.368h-2.394v4.176h2.394c1.584 0 2.628-.774 2.628-2.088 0-1.368-1.044-2.088-2.628-2.088zm10.5 10.368l4.375-12.24h2.448l4.374 12.24h-1.836l-1.044-2.862h-5.436l-1.044 2.862h-1.836zm3.51-4.554h4.177l-2.088-5.688-2.088 5.688zm19.214-7.866c2.79 0 4.464 1.224 5.598 3.15l-1.764.522c-1.098-1.512-2.358-1.944-3.834-1.944-2.484 0-4.356 1.926-4.356 4.572s1.872 4.572 4.356 4.572c1.476 0 2.736-.432 3.834-1.944l1.764.522c-1.134 1.926-2.808 3.15-5.598 3.15-3.546 0-6.192-2.682-6.192-6.3 0-3.636 2.646-6.3 6.192-6.3zm20.49 1.872h-4.013v10.548h-1.8v-10.548h-3.834v-1.692h9.648v1.692zm13.867 8.838v1.71h-7.452v-12.258h7.452v1.692h-5.652v3.564h4.59v1.692h-4.59v3.6h5.652zm14.245 1.71l-2.43-4.32h-2.61v4.32h-1.8v-12.24h4.5c2.52 0 4.194 1.764 4.194 3.96 0 1.674-.936 3.06-2.466 3.654l2.592 4.626h-1.98zm-2.646-10.368h-2.394v4.176h2.394c1.584 0 2.628-.774 2.628-2.088 0-1.368-1.044-2.088-2.628-2.088zm18.943 6.93c0 2.052-1.764 3.708-4.266 3.708-1.764 0-3.42-.756-4.356-3.024l1.494-.846c.864 1.566 1.674 2.142 3.042 2.142 1.386 0 2.286-.828 2.286-1.854 0-.864-.54-1.656-2.826-2.142-2.682-.558-3.582-1.98-3.582-3.438 0-1.998 1.476-3.528 3.852-3.528 1.764 0 3.096.666 4.014 2.052l-1.512.972c-.864-1.062-1.62-1.278-2.574-1.278-1.278 0-2.016.756-2.016 1.656 0 .846.522 1.458 2.682 1.998 2.52.612 3.762 1.8 3.762 3.582z"/>
    </g>
</svg>
